{"title":"VJ Sky - Masterboy Videomix 2010.avi","uid":7687384,"size":362656180,"categoryP":"video","categoryS":"music_videos","magnet":"?xt=urn:btih:9b7f4eae7f4f07af7e595e17693de9ad7d69a6e5&amp;dn=VJ+Sky+-+Masterboy+Videomix+2010.avi&amp;tr=udp%3A%2F%2Ftracker.openbittorrent.com%3A80&amp;tr=udp%3A%2F%2Fopen.demonii.com%3A1337&amp;tr=udp%3A%2F%2Ftracker.coppersurfer.tk%3A6969&amp;tr=udp%3A%2F%2Fexodus.desync.com%3A6969","seeders":1,"leechers":1,"uploader":"bajkiro","files":1,"time":1348995785,"description":"Video\nID                             : 0\nFormat                         : MPEG-4 Visual\nFormat profile                 : Simple@L1\nFormat settings, BVOP          : No\nFormat settings, QPel          : No\nFormat settings, GMC           : No warppoints\nFormat settings, Matrix        : Default (H.263)\nCodec ID                       : DX50\nCodec ID/Hint                  : DivX 5\nDuration                       : 7mn 32s\nBit rate                       : 6 173 Kbps\nWidth                          : 720 pixels\nHeight                         : 576 pixels\nDisplay aspect ratio           : 5:4\nFrame rate                     : 50.000 fps\nStandard                       : PAL\nColor space                    : YUV\nChroma subsampling             : 4:2:0\nBit depth                      : 8 bits\nScan type                      : Interlaced\nScan order                     : Top Field First\nCompression mode               : Lossy\nBits/(Pixel*Frame)             : 0.298\nStream size                    : 333 MiB (96%)\nWriting library                : Lavc52.0.0\n\nAudio\nID                             : 1\nFormat                         : MPEG Audio\nFormat version                 : Version 1\nFormat profile                 : Layer 3\nMode                           : Joint stereo\nCodec ID                       : 55\nCodec ID/Hint                  : MP3\nDuration                       : 7mn 32s\nBit rate mode                  : Constant\nBit rate                       : 224 Kbps\nChannel(s)                     : 2 channels\nSampling rate                  : 44.1 KHz\nCompression mode               : Lossy\nStream size                    : 12.1 MiB (3%)\nAlignment                      : Aligned on interleaves\nInterleave, duration           : 26 ms (1.31 video frame)\nInterleave, preload duration   : 809 ms\nWriting library                : LAME3.97\n\nDuration                       : 7mn 32s","torrent":{"xt":"urn:btih:9b7f4eae7f4f07af7e595e17693de9ad7d69a6e5","amp;dn":"VJ+Sky+-+Masterboy+Videomix+2010.avi","amp;tr":["udp%3A%2F%2Ftracker.openbittorrent.com%3A80","udp%3A%2F%2Fopen.demonii.com%3A1337","udp%3A%2F%2Ftracker.coppersurfer.tk%3A6969","udp%3A%2F%2Fexodus.desync.com%3A6969"],"infoHash":"9b7f4eae7f4f07af7e595e17693de9ad7d69a6e5","infoHashBuffer":{"type":"Buffer","data":[155,127,78,174,127,79,7,175,126,89,94,23,105,61,233,173,125,105,166,229]},"announce":[],"urlList":[]}}